<?xml version="1.0" encoding="UTF-8" standalone="no"?>
<!-- Created with Inkscape (http://www.inkscape.org/) -->

<svg
   xmlns:dc="http://purl.org/dc/elements/1.1/"
   xmlns:cc="http://creativecommons.org/ns#"
   xmlns:rdf="http://www.w3.org/1999/02/22-rdf-syntax-ns#"
   xmlns:svg="http://www.w3.org/2000/svg"
   xmlns="http://www.w3.org/2000/svg"
   xmlns:sodipodi="http://sodipodi.sourceforge.net/DTD/sodipodi-0.dtd"
   xmlns:inkscape="http://www.inkscape.org/namespaces/inkscape"
   width="101.56257"
   height="17.192921"
   viewBox="0 0 26.871763 4.5489604"
   version="1.1"
   id="svg13156"
   inkscape:version="0.92.0 r15299"
   sodipodi:docname="eventbrite.svg">
  <defs
     id="defs13150" />
  <sodipodi:namedview
     id="base"
     pagecolor="#ffffff"
     bordercolor="#666666"
     borderopacity="1.0"
     inkscape:pageopacity="0.0"
     inkscape:pageshadow="2"
     inkscape:zoom="8.9198198"
     inkscape:cx="50.281285"
     inkscape:cy="8.0964611"
     inkscape:document-units="mm"
     inkscape:current-layer="layer1"
     showgrid="false"
     fit-margin-top="0"
     fit-margin-left="0"
     fit-margin-right="0"
     fit-margin-bottom="0"
     units="px"
     inkscape:window-width="1280"
     inkscape:window-height="744"
     inkscape:window-x="-4"
     inkscape:window-y="-4"
     inkscape:window-maximized="1" />
  <metadata
     id="metadata13153">
    <rdf:RDF>
      <cc:Work
         rdf:about="">
        <dc:format>image/svg+xml</dc:format>
        <dc:type
           rdf:resource="http://purl.org/dc/dcmitype/StillImage" />
        <dc:title></dc:title>
      </cc:Work>
    </rdf:RDF>
  </metadata>
  <g
     inkscape:label="Layer 1"
     inkscape:groupmode="layer"
     id="layer1"
     transform="translate(-41.124981,-182.71228)">
    <path
       inkscape:connector-curvature="0"
       id="path13136"
       d="m 61.922332,182.84457 c 0.12816,0 0.23702,0.0468 0.32522,0.1378 0.091,0.0923 0.1378,0.20533 0.1378,0.33624 0,0.1254 -0.0469,0.23427 -0.1378,0.32522 -0.0923,0.0882 -0.2012,0.13229 -0.32522,0.13229 -0.12953,0 -0.23978,-0.0441 -0.33073,-0.13229 -0.0882,-0.0868 -0.13229,-0.19568 -0.13229,-0.32522 0,-0.13505 0.0441,-0.24804 0.13229,-0.33624 0.0868,-0.091 0.19844,-0.1378 0.33073,-0.1378 z m -5.92556,0.0937 c 0.0358,-0.007 0.0799,-0.0124 0.13229,-0.0165 0.0537,-0.003 0.11713,0.003 0.18741,0.0165 0.073,0.0152 0.14056,0.0455 0.20395,0.0882 0.062,0.0413 0.113,0.10886 0.15434,0.20395 0.0427,0.0965 0.0661,0.21222 0.0661,0.34726 v 0.65595 c 0,0.0221 0.008,0.0276 0.0276,0.0165 0.16812,-0.0868 0.37483,-0.13229 0.61736,-0.13229 0.41066,0 0.75103,0.13092 1.01975,0.39137 0.26734,0.26182 0.40239,0.61047 0.40239,1.0473 0,0.47818 -0.14745,0.86128 -0.44098,1.14653 -0.2949,0.28388 -0.7152,0.42444 -1.26228,0.42444 -0.33073,0 -0.67662,-0.0565 -1.03628,-0.17088 -0.0662,-0.0138 -0.0992,-0.062 -0.0992,-0.14331 v -3.83092 c 0,-0.01 0.008,-0.0248 0.0276,-0.0441 z m -14.10009,0.29215 h 1.75838 c 0.0289,0 0.0441,0.0152 0.0441,0.0441 v 0.66145 c 0,0.0262 -0.0152,0.0386 -0.0441,0.0386 h -1.55443 c -0.0262,0 -0.0386,0.0152 -0.0386,0.0441 v 0.71658 c 0.007,0.0303 0.0193,0.0441 0.0386,0.0441 h 1.37804 c 0.0289,0 0.0441,0.0152 0.0441,0.0441 v 0.6339 c 0,0.0303 -0.0151,0.0441 -0.0441,0.0441 h -1.37804 c -0.0193,0 -0.0317,0.0152 -0.0386,0.0441 v 0.72209 c 0,0.0303 0.0124,0.0441 0.0386,0.0441 h 1.60955 c 0.0179,0 0.0303,0.0124 0.0386,0.0331 0.01,0.0331 0.0179,0.0786 0.0221,0.1323 0.003,0.0524 -0.004,0.11299 -0.0221,0.1819 -0.0152,0.0703 -0.0427,0.13504 -0.0827,0.19292 -0.0413,0.0593 -0.10749,0.10887 -0.19844,0.14883 -0.0923,0.0413 -0.20532,0.0606 -0.33624,0.0606 h -1.83003 c -0.0303,0 -0.0441,-0.0138 -0.0441,-0.0441 v -3.14744 c 0,-0.17501 0.0606,-0.3266 0.1819,-0.452 0.12402,-0.12402 0.27699,-0.18741 0.45751,-0.18741 z m 11.8401,0.21497 h 0.68902 c 0.0248,0 0.0386,0.0138 0.0386,0.0386 v 0.65594 c 0,0.0303 0.0138,0.0441 0.0441,0.0441 h 0.73311 c 0.0289,0 0.0441,0.0152 0.0441,0.0441 v 0.56224 c 0,0.0262 -0.0152,0.0386 -0.0441,0.0386 h -0.73311 c -0.0303,0 -0.0441,0.0138 -0.0441,0.0386 v 1.11345 c 0,0.29077 0.12953,0.43546 0.39136,0.43546 0.13918,0 0.28801,-0.0386 0.44649,-0.11575 0.011,-0.003 0.0179,-0.003 0.022,0 0.007,0.004 0.0124,0.008 0.0165,0.011 l 0.011,0.006 c 0.04,0.0482 0.0675,0.11714 0.0827,0.20395 0.0138,0.0854 -0.003,0.18053 -0.0496,0.28664 -0.11438,0.20946 -0.36243,0.31419 -0.74414,0.31419 -0.27561,0 -0.50436,-0.073 -0.68351,-0.22049 -0.17639,-0.1502 -0.26458,-0.38723 -0.26458,-0.71107 v -1.14101 c 0,-0.0579 -0.0234,-0.11024 -0.0661,-0.15434 -0.0441,-0.0427 -0.0965,-0.0662 -0.154341,-0.0662 h -0.17088 c -0.0303,0 -0.0441,-0.0124 -0.0441,-0.0386 v -0.56224 c 0,-0.0289 0.0138,-0.0441 0.0441,-0.0441 h 0.35278 c 0.0248,0 0.0386,-0.0138 0.0386,-0.0441 v -0.65594 c 0,-0.0248 0.0138,-0.0386 0.0441,-0.0386 z m 9.49193,0 h 0.69453 c 0.0221,0 0.0331,0.0138 0.0331,0.0386 v 0.65594 c 0.007,0.0303 0.022,0.0441 0.0441,0.0441 h 0.73863 c 0.0248,0 0.0386,0.0152 0.0386,0.0441 v 0.56224 c 0,0.0262 -0.0138,0.0386 -0.0386,0.0386 h -0.73863 c -0.0221,0 -0.0372,0.0138 -0.0441,0.0386 v 1.11345 c 0,0.29077 0.12953,0.43546 0.39136,0.43546 0.13091,0 0.2825,-0.0386 0.45199,-0.11575 l 0.0441,0.0165 c 0.0248,0.0262 0.0469,0.0634 0.0661,0.11025 0.0179,0.0482 0.0248,0.10886 0.0221,0.1819 0,0.0744 -0.0193,0.14056 -0.0551,0.19844 -0.10748,0.20946 -0.35553,0.31419 -0.74414,0.31419 -0.2756,0 -0.50298,-0.073 -0.67799,-0.22049 -0.17639,-0.1502 -0.26458,-0.38723 -0.26458,-0.71107 v -1.14101 c 0,-0.0579 -0.0234,-0.11024 -0.0661,-0.15434 -0.0441,-0.0427 -0.0978,-0.0662 -0.159851,-0.0662 h -0.16537 c -0.0262,0 -0.0386,-0.0124 -0.0386,-0.0386 v -0.56224 c 0,-0.0289 0.0124,-0.0441 0.0386,-0.0441 h 0.34727 c 0.0289,0 0.0441,-0.0138 0.0441,-0.0441 v -0.65594 c 0,-0.0248 0.0124,-0.0386 0.0386,-0.0386 z m -16.927819,0.73863 h 0.71107 c 0.0427,0 0.0537,0.0289 0.0331,0.0827 l -1.04731,2.73403 c -0.0152,0.0413 -0.0344,0.0606 -0.0551,0.0606 h -0.84336 c -0.0262,0 -0.0455,-0.0193 -0.0551,-0.0606 l -1.036291,-2.70095 c -0.008,-0.0207 -0.004,-0.04 0.011,-0.0551 0.04,-0.0317 0.0951,-0.0606 0.16536,-0.0827 0.0689,-0.0248 0.15021,-0.04 0.24254,-0.0441 0.091,-0.003 0.18328,0.0317 0.27561,0.10474 0.0951,0.0744 0.17087,0.18879 0.22599,0.34175 l 0.58429,1.67018 c 0.003,0.011 0.008,0.0165 0.0165,0.0165 0.01,0 0.0179,-0.006 0.0221,-0.0165 l 0.69453,-1.9954 c 0.01,-0.0358 0.0289,-0.0551 0.0551,-0.0551 z m 2.215889,-0.0661 c 0.83371,0 1.25125,0.49748 1.25125,1.48829 0,0.0634 -0.0248,0.11851 -0.0716,0.16536 -0.0441,0.0441 -0.100599,0.0661 -0.165369,0.0661 h -1.61506 c -0.0262,0 -0.0386,0.0138 -0.0386,0.0386 0.0289,0.18741 0.12402,0.33349 0.28663,0.43546 0.16398,0.10335 0.34864,0.15434 0.551209,0.15434 0.289391,0 0.57878,-0.0634 0.86541,-0.19292 0.0179,-0.01 0.0358,-0.007 0.0551,0.011 0.0248,0.0372 0.0455,0.0868 0.0606,0.14883 0.0179,0.0634 0.0234,0.13642 0.0165,0.22048 -0.008,0.0854 -0.0537,0.16675 -0.1378,0.24254 -0.0813,0.0744 -0.2012,0.13091 -0.35829,0.17088 -0.008,0 -0.0317,0.004 -0.0717,0.011 -0.0372,0.008 -0.0786,0.0152 -0.12127,0.0221 -0.0441,0.004 -0.10335,0.01 -0.17639,0.0165 -0.0703,0.008 -0.14194,0.011 -0.21497,0.011 -0.46716,0 -0.83647,-0.13229 -1.10794,-0.39688 -0.27286,-0.2632 -0.4079,-0.62287 -0.4079,-1.07486 0,-0.46578 0.12953,-0.83923 0.39136,-1.11897 0.26045,-0.27837 0.59669,-0.41893 1.00872,-0.41893 z m 3.11436,0 c 0.3955,0 0.70005,0.0896 0.90951,0.26459 0.21221,0.17363 0.3197,0.4644 0.3197,0.87092 v 1.8135 c 0,0.0193 -0.01,0.0303 -0.0276,0.0331 -0.0331,0.0152 -0.0785,0.0248 -0.13229,0.0276 -0.0551,0.004 -0.11989,-0.001 -0.19293,-0.0165 -0.0744,-0.0179 -0.14194,-0.0469 -0.20395,-0.0882 -0.0634,-0.0427 -0.11713,-0.113 -0.15985,-0.20946 -0.0413,-0.0951 -0.0606,-0.21084 -0.0606,-0.34727 v -1.15755 c 0,-0.3266 -0.1695,-0.49058 -0.50712,-0.49058 -0.1695,0 -0.334859,0.0234 -0.496089,0.0661 -0.0331,0.008 -0.0496,0.0303 -0.0496,0.0661 v 2.06706 c 0,0.0303 -0.0138,0.0441 -0.0386,0.0441 h -0.689021 c -0.0303,0 -0.0441,-0.0138 -0.0441,-0.0441 v -2.60174 c 0,-0.0289 0.0138,-0.0496 0.0441,-0.0606 0.432711,-0.1571 0.876441,-0.23703 1.32843,-0.23703 z m 8.78086,0 c 0.19706,0 0.35278,0.0345 0.46302,0.0992 0.113,0.0661 0.17915,0.15021 0.19844,0.24805 0.0179,0.0965 0.0234,0.18052 0.0165,0.25356 -0.008,0.0744 -0.0248,0.13643 -0.0496,0.18741 -0.011,0.0221 -0.0303,0.0303 -0.0551,0.0221 -0.14056,-0.051 -0.32384,-0.0772 -0.55121,-0.0772 -0.12954,0 -0.2508,0.0193 -0.3638,0.0551 -0.0193,0.008 -0.0276,0.0207 -0.0276,0.0386 v 2.07257 c 0,0.0303 -0.0152,0.0441 -0.0441,0.0441 h -0.68902 c -0.0303,0 -0.0441,-0.0138 -0.0441,-0.0441 v -2.59071 c 0,-0.01 0.003,-0.0193 0.011,-0.0276 0.007,-0.01 0.0124,-0.0179 0.0165,-0.0221 0.007,-0.007 0.0193,-0.0165 0.0386,-0.0276 l 0.0221,-0.011 c 0.34038,-0.14608 0.69453,-0.22049 1.05834,-0.22049 z m 6.20669,0 c 0.82956,0 1.24576,0.49748 1.24576,1.48829 0,0.0634 -0.025,0.11851 -0.072,0.16536 -0.044,0.0441 -0.098,0.0661 -0.159802,0.0661 h -1.61509 c -0.0303,0 -0.0441,0.0138 -0.0441,0.0386 0.0317,0.18741 0.12954,0.33349 0.29215,0.43546 0.16123,0.10335 0.34313,0.15434 0.5457,0.15434 0.28939,0 0.57874,-0.0634 0.86544,-0.19292 0.018,-0.01 0.036,-0.007 0.055,0.011 0.029,0.0372 0.051,0.0868 0.066,0.14883 0.014,0.0634 0.01799,0.13642 0.01101,0.22048 0,0.0854 -0.048,0.16675 -0.1323,0.24254 -0.086,0.0744 -0.2067,0.13091 -0.3638,0.17088 -0.01,0 -0.0303,0.004 -0.0662,0.011 -0.0372,0.008 -0.0786,0.0152 -0.12127,0.0221 -0.0441,0.004 -0.10335,0.01 -0.17639,0.0165 -0.0744,0.008 -0.14607,0.011 -0.21497,0.011 -0.46715,0 -0.83922,-0.13229 -1.11345,-0.39688 -0.27286,-0.2632 -0.4079,-0.62287 -0.4079,-1.07486 0,-0.46578 0.12953,-0.83923 0.39136,-1.11897 0.2632,-0.27837 0.6022,-0.41893 1.01424,-0.41893 z m -5.03811,0.0661 h 0.68902 c 0.0289,0 0.0441,0.0152 0.0441,0.0441 v 2.83876 c 0,0.0193 -0.01,0.0303 -0.0276,0.0331 -0.0372,0.0152 -0.0841,0.0248 -0.1378,0.0276 -0.0551,0.004 -0.11989,-0.001 -0.19293,-0.0165 -0.0703,-0.0138 -0.13642,-0.0441 -0.19844,-0.0882 -0.0592,-0.0427 -0.11161,-0.113 -0.15433,-0.20946 -0.0413,-0.0951 -0.0606,-0.20946 -0.0606,-0.34176 v -2.24344 c 0,-0.0289 0.0124,-0.0441 0.0386,-0.0441 z m -13.080339,0.57326 c -0.158481,0 -0.29077,0.0524 -0.396881,0.15434 -0.103349,0.0992 -0.17776,0.23978 -0.220479,0.41893 -0.004,0.0152 -0.003,0.0262 0.006,0.0331 0.007,0.004 0.0193,0.006 0.0386,0.006 h 1.07487 c 0.0248,0 0.0386,-0.0124 0.0386,-0.0386 -0.008,-0.17226 -0.0579,-0.31006 -0.148831,-0.41341 -0.0882,-0.10611 -0.219099,-0.15986 -0.39136,-0.15986 z m 18.101909,0 c -0.16261,0 -0.29628,0.0524 -0.40239,0.15434 -0.10335,0.0992 -0.17501,0.23978 -0.21497,0.41893 -0.004,0.0152 -0.003,0.0262 0.006,0.0331 0.007,0.004 0.0193,0.006 0.0386,0.006 h 1.06935 c 0.0248,0 0.0386,-0.0124 0.0386,-0.0386 -0.008,-0.17226 -0.0579,-0.31006 -0.14883,-0.41341 -0.0882,-0.10611 -0.21773,-0.15986 -0.38585,-0.15986 z m -9.3431,0.0661 c -0.19155,0 -0.35967,0.0469 -0.50161,0.1378 -0.011,0.004 -0.0165,0.0152 -0.0165,0.0331 v 1.32291 c 0,0.0524 0.0221,0.0868 0.0661,0.10473 0.14194,0.0303 0.25356,0.0441 0.33073,0.0441 0.26045,0 0.47129,-0.073 0.6339,-0.22048 0.16123,-0.15021 0.24253,-0.37208 0.24253,-0.66698 0,-0.22324 -0.073,-0.40514 -0.21497,-0.5457 -0.14332,-0.13918 -0.32384,-0.20946 -0.54019,-0.20946 z m 0,0"
       style="fill:#f5662e;fill-opacity:1;stroke:none;stroke-width:0.35277778" />
  </g>
</svg>
