<?xml version="1.0" encoding="utf-8"?>
<!-- Generator: Adobe Illustrator 16.0.0, SVG Export Plug-In . SVG Version: 6.00 Build 0)  -->
<!DOCTYPE svg PUBLIC "-//W3C//DTD SVG 1.1//EN" "http://www.w3.org/Graphics/SVG/1.1/DTD/svg11.dtd">
<svg version="1.1" id="Layer_1" xmlns="http://www.w3.org/2000/svg" xmlns:xlink="http://www.w3.org/1999/xlink" x="0px" y="0px"
	 width="202.602px" height="109.666px" viewBox="0 0 202.602 109.666" enable-background="new 0 0 202.602 109.666"
	 xml:space="preserve">
<g>
	<g>
		<path fill="#010101" d="M65.896,90.359c-0.155-1.346-0.379-2.484-1.653-2.484c-1.562,0-1.941,1.604-1.941,4.366
			c0,1.021,0,3.81,1.941,3.81c1.408,0,1.564-1.511,1.653-2.484l2.188,0.211c-0.177,1.413-0.557,4.227-4.018,4.227
			c-3.573,0-4.153-3.554-4.153-5.974c0-2.666,0.715-6.037,4.309-6.037c3.283,0,3.707,2.904,3.862,4.136L65.896,90.359z"/>
		<path fill="#010101" d="M71.969,82.23v15.491h-2.278V82.23H71.969z"/>
		<path fill="#010101" d="M82.021,91.869c0,2.671-0.602,6.135-4.354,6.135c-3.416,0-4.309-3.043-4.309-6.017
			c0-2.765,0.737-5.994,4.354-5.994C81.152,85.993,82.021,89.081,82.021,91.869z M75.771,92.009c0,2.996,0.647,4.201,1.92,4.201
			c1.272,0,1.919-1.16,1.919-4.224c0-2.948-0.625-4.206-1.919-4.206C76.306,87.781,75.771,89.222,75.771,92.009z"/>
		<path fill="#010101" d="M85.69,86.271v7.269c0,1.607,0,2.556,1.274,2.556c1.831,0,1.831-2.204,1.831-4.318v-5.506h2.278v11.45
			h-2.1v-1.72c-0.399,0.841-0.96,2.002-2.792,2.002c-2.768,0-2.768-2.511-2.768-4.415v-7.317H85.69z"/>
		<path fill="#010101" d="M101.101,82.23v15.491h-2.097v-1.74c-0.292,0.673-0.851,1.951-2.771,1.951
			c-3.103,0-3.684-3.669-3.684-5.878c0-3.924,1.586-5.991,3.773-5.991c1.718,0,2.255,1.021,2.523,1.531V82.23H101.101z
			 M98.846,90.987c0-0.742,0-1.484-0.468-2.229c-0.245-0.373-0.737-0.953-1.517-0.953c-1.676,0-1.899,2.206-1.899,4.041
			c0,1.953,0.2,4.297,1.92,4.297c0.646,0,1.159-0.368,1.496-0.904c0.29-0.464,0.468-1.024,0.468-2.276V90.987z"/>
		<path fill="#010101" d="M106.354,89.222c0.515-2.951,3.129-3.229,4.156-3.229c1.584,0,2.521,0.604,3.036,1.231
			c0.691,0.791,0.691,2.207,0.691,3.436v3.88c0,0.974,0,2.395,0.18,3.182h-2.123c-0.108-0.556-0.154-0.832-0.154-1.903
			c-0.424,0.813-1.14,2.186-3.105,2.186c-1.784,0-3.082-1.186-3.082-3.299c0-1.834,0.961-3.114,2.278-3.578
			c0.938-0.325,2.146-0.512,3.729-0.467v-0.464c0-0.832,0-2.463-1.63-2.463c-1.449,0-1.697,1.306-1.783,1.794L106.354,89.222z
			 M111.959,92.126c-0.354-0.024-0.513-0.024-0.67-0.024c-2.635,0-2.968,1.37-2.968,2.438c0,1.372,0.713,1.72,1.473,1.72
			c0.962,0,2.165-1.021,2.165-3.555V92.126z"/>
		<path fill="#010101" d="M121.692,90.359c-0.157-1.346-0.381-2.484-1.652-2.484c-1.564,0-1.942,1.604-1.942,4.366
			c0,1.021,0,3.81,1.942,3.81c1.406,0,1.563-1.511,1.652-2.484l2.188,0.211c-0.179,1.413-0.557,4.227-4.019,4.227
			c-3.574,0-4.153-3.554-4.153-5.974c0-2.666,0.713-6.037,4.309-6.037c3.284,0,3.708,2.904,3.863,4.136L121.692,90.359z"/>
		<path fill="#010101" d="M131.131,90.359c-0.16-1.346-0.381-2.484-1.655-2.484c-1.562,0-1.941,1.604-1.941,4.366
			c0,1.021,0,3.81,1.941,3.81c1.406,0,1.563-1.511,1.655-2.484l2.184,0.211c-0.173,1.413-0.557,4.227-4.017,4.227
			c-3.575,0-4.153-3.554-4.153-5.974c0-2.666,0.714-6.037,4.309-6.037c3.284,0,3.709,2.904,3.861,4.136L131.131,90.359z"/>
		<path fill="#010101" d="M143.321,91.869c0,2.671-0.602,6.135-4.356,6.135c-3.414,0-4.308-3.043-4.308-6.017
			c0-2.765,0.736-5.994,4.351-5.994C142.45,85.993,143.321,89.081,143.321,91.869z M137.069,92.009c0,2.996,0.646,4.201,1.918,4.201
			c1.275,0,1.922-1.16,1.922-4.224c0-2.948-0.624-4.206-1.922-4.206C137.604,87.781,137.069,89.222,137.069,92.009z"/>
		<path fill="#010101" d="M147.043,86.271v7.269c0,1.607,0,2.556,1.271,2.556c1.831,0,1.831-2.204,1.831-4.318v-5.506h2.279v11.45
			h-2.102v-1.72c-0.402,0.841-0.96,2.002-2.793,2.002c-2.765,0-2.765-2.511-2.765-4.415v-7.317H147.043z"/>
		<path fill="#010101" d="M154.174,86.271h2.103v1.767c0.266-0.625,0.824-2.045,2.721-2.045c0.714,0,1.853,0.185,2.457,1.42
			c0.358,0.718,0.379,1.785,0.379,2.924v7.385h-2.274v-7.243c0-1.487,0-2.579-1.32-2.579c-1.787,0-1.787,2.229-1.787,3.415v6.407
			h-2.277V86.271z"/>
		<path fill="#010101" d="M168.595,88.179h-2.103v5.06c0,2,0,2.763,1.519,2.763c0.403,0,0.673-0.043,0.938-0.069v1.863
			c-0.446,0.09-0.959,0.208-1.695,0.208c-2.996,0-2.996-2.092-2.996-4.602v-5.223h-1.428v-1.908h1.496l0.113-2.998l2.053-0.184
			v3.182h2.103V88.179z"/>
		<path fill="#010101" d="M170.582,84.715v-2.51h2.389v2.51H170.582z M172.928,86.271v11.45h-2.28v-11.45H172.928z"/>
		<path fill="#010101" d="M174.856,86.271h2.101v1.767c0.266-0.625,0.827-2.045,2.724-2.045c0.713,0,1.854,0.185,2.457,1.42
			c0.355,0.718,0.379,1.785,0.379,2.924v7.385h-2.277v-7.243c0-1.487,0-2.579-1.318-2.579c-1.784,0-1.784,2.229-1.784,3.415v6.407
			h-2.28V86.271z"/>
		<path fill="#010101" d="M193.227,86.177c-0.199-0.047-0.334-0.069-0.512-0.069c-0.647,0-1.028,0.303-1.207,1.255
			c0.56,0.718,0.85,1.534,0.85,2.463c0,1.787-1.205,3.669-3.817,3.669c-0.627,0-1.027-0.093-1.409-0.207
			c-0.333,0.164-0.825,0.372-0.825,1.021c0,0.859,0.559,0.882,2.791,1c2.143,0.14,4.287,0.256,4.287,3.09
			c0,3.041-2.971,3.553-5.002,3.553c-1.563,0-4.443-0.301-4.443-2.88c0-1.601,1.116-2.022,1.607-2.208
			c-0.423-0.278-1.205-0.745-1.205-1.902c0-1.421,1.138-2.022,1.632-2.278c-0.537-0.395-1.431-1.045-1.431-2.928
			c0-2.274,1.608-3.762,3.862-3.762c1.049,0,1.63,0.278,2.103,0.489c0.152-0.884,0.354-2.114,2.029-2.114
			c0.289,0,0.491,0.045,0.715,0.069L193.227,86.177z M185.993,98.699c0,1.233,0.983,1.602,2.656,1.602
			c0.962,0,2.614-0.159,2.614-1.579c0-1.043-0.804-1.278-1.319-1.321c-0.422-0.049-2.522-0.143-2.989-0.163
			C186.642,97.4,185.993,97.768,185.993,98.699z M186.888,89.803c0,0.348,0,2.206,1.562,2.206c1.563,0,1.563-1.931,1.563-2.206
			c0-0.536-0.091-2.252-1.499-2.252C187.109,87.551,186.888,88.828,186.888,89.803z"/>
	</g>
	<path fill="#0D83DD" d="M10.578,41.239h16.039v7.414h-8.158v6.395h7.233v7.234h-7.233V76h-7.881V41.239z"/>
	<path fill="#0D83DD" d="M27.271,46.985h7.667c3.103,0,5.548,0.801,7.344,2.393c1.795,1.592,2.693,3.758,2.693,6.496
		c0,1.404-0.338,2.764-1.016,4.078c-0.684,1.311-1.677,2.295-2.98,2.961l5.261,13.078h-6.954L33.959,62.78h-0.11v13.211h-6.579
		V46.985z M33.849,52.594v6.883c2.912-0.055,4.369-1.076,4.369-3.061c0-1.346-0.338-2.312-1.009-2.893
		C36.537,52.944,35.415,52.637,33.849,52.594z"/>
	<path fill="#0D83DD" d="M46.763,46.985h13.323v6.17h-6.737V58.5h5.844v6.02h-5.844v5.279h6.781v6.191H46.763V46.985z"/>
	<path fill="#0D83DD" d="M74.275,46.985h6.583v10.754h5.845V46.985h6.584v29.006h-6.584V63.932h-5.845v12.059h-6.583V46.985z"/>
	<path fill="#060707" d="M94.687,41.239h8.081c4.699,0,8.09,0.916,10.149,2.744c2.063,1.838,3.095,4.176,3.095,7.006
		c0,3.061-1.494,5.52-4.486,7.379c3.361,1.334,5.041,3.875,5.041,7.621c0,3.004-1.057,5.418-3.164,7.256
		c-2.111,1.84-4.896,2.756-8.348,2.756H94.687V41.239z M102.568,47.915v7.508c3.711-0.088,5.562-1.314,5.562-3.678
		c0-1.41-0.443-2.391-1.33-2.945C105.916,48.247,104.509,47.948,102.568,47.915z M102.568,61.729v7.598
		c2.04-0.035,3.566-0.34,4.59-0.932c1.021-0.588,1.529-1.559,1.529-2.91c0-2.506-1.816-3.756-5.453-3.756H102.568z"/>
	<path fill="#060707" d="M127.772,76.729c-3.502,0-6.168-1.346-8.012-4.033c-1.843-2.689-2.762-6.568-2.762-11.637
		c0-4.676,0.924-8.324,2.769-10.938c1.845-2.619,4.424-3.924,7.728-3.924c3.521,0,6.21,1.311,8.07,3.934
		c1.856,2.621,2.796,6.365,2.796,11.236c0,4.863-0.919,8.639-2.753,11.328C133.778,75.383,131.167,76.729,127.772,76.729z
		 M127.534,52.78c-2.374,0-3.56,2.791-3.56,8.363c0,3.596,0.299,5.99,0.901,7.195c0.6,1.201,1.473,1.801,2.619,1.801
		c1.229,0,2.174-0.6,2.837-1.801c0.655-1.205,0.987-3.559,0.987-7.061C131.319,55.608,130.058,52.78,127.534,52.78z"/>
	<path fill="#060707" d="M149.509,76.729c-3.504,0-6.179-1.346-8.02-4.033c-1.838-2.689-2.758-6.568-2.758-11.637
		c0-4.676,0.923-8.324,2.768-10.938c1.85-2.619,4.422-3.924,7.728-3.924c3.52,0,6.21,1.311,8.071,3.934
		c1.863,2.621,2.795,6.365,2.795,11.236c0,4.863-0.916,8.639-2.752,11.328C155.51,75.383,152.901,76.729,149.509,76.729z
		 M149.272,52.78c-2.378,0-3.566,2.791-3.566,8.363c0,3.596,0.299,5.99,0.898,7.195c0.605,1.201,1.479,1.801,2.622,1.801
		c1.229,0,2.177-0.6,2.834-1.801c0.665-1.205,0.989-3.559,0.989-7.061C153.05,55.608,151.79,52.78,149.272,52.78z"/>
	<path fill="#060707" d="M160.62,46.985h6.586v13.643h0.106l6.216-13.643h6.91l-6.736,14.818l6.453,14.188h-7.23l-5.612-12.059
		h-0.106v12.059h-6.586V46.985z"/>
	<path fill="#060707" d="M180.677,75.467v-6.758c2.083,1.213,3.834,1.824,5.26,1.824c0.826,0,1.476-0.229,1.955-0.686
		c0.471-0.453,0.713-1.062,0.713-1.814c0-0.578-0.191-1.119-0.574-1.629c-0.385-0.506-1.045-1.121-1.988-1.844
		c-2.271-1.742-3.924-3.359-4.944-4.859c-1.021-1.498-1.53-3.17-1.53-5.01c0-2.504,0.789-4.549,2.371-6.127
		c1.577-1.578,3.621-2.367,6.123-2.367c1.856,0,3.697,0.396,5.523,1.197v6.492c-1.957-1.066-3.547-1.607-4.76-1.607
		c-0.811,0-1.452,0.203-1.929,0.6c-0.47,0.398-0.704,0.945-0.704,1.639c0,1.219,1.094,2.586,3.278,4.105
		c1.308,0.902,2.63,2.162,3.97,3.795c1.343,1.633,2.011,3.518,2.011,5.662c0,2.504-0.879,4.576-2.63,6.223
		c-1.752,1.646-3.975,2.465-6.668,2.465C184.311,76.768,182.489,76.334,180.677,75.467z"/>
	<path fill="#0D83DD" d="M74.842,68.465l-6.625-9.48c-6.624-9.48,7.562-15.617,7.562-15.617l-1.041-1.045
		c0,0-23.072,4.756-13.42,18.576l6.566,9.896c2.467,3.713-1.224,5.85-3.503,5.85c-2.281,0-4.165,0-4.165,0v1.781h3.238
		C68.937,78.426,80.743,77.225,74.842,68.465z"/>
	<path fill="#6A8A22" d="M152.367,33.368c0,0-3.068,1.805-8.714,10.057c-0.881,1.291-1.48,1.172-1.48,1.172s0.262,1.973,3.164,1.381
		c0,0,4.105-9.734,8.392-11.672L152.367,33.368z"/>
	<path fill="#86C61F" d="M148.345,38.383c0,0,1.913-26.617,23.483-25.93c17.876,0.57,23.623-6.379,23.623-6.379
		S195.642,43.897,148.345,38.383z"/>
	<path fill="#6A8A22" d="M150.946,35.809c0,0,8.918-13.484,19.463-14.535c10.726-1.072,17.276-6.359,17.276-6.359
		s-6.525,7.973-17.93,9.119C159.921,25.016,150.946,35.809,150.946,35.809z"/>
</g>
</svg>
